<svg xmlns="http://www.w3.org/2000/svg" width="28" height="28"><path fill-rule="evenodd" d="M21.412 0v8.235h-1.647V1.647H1.647v24.706h18.118v-3.294h1.647V28H0V0ZM23.3 8.478a.823.823 0 0 1 1.166 0l3.294 3.294a.824.824 0 0 1 0 1.164l-9.882 9.882a.829.829 0 0 1-.583.24H14a.824.824 0 0 1-.824-.824v-3.293a.823.823 0 0 1 .24-.581Zm-2.265 4.594-6.211 6.211v2.13h2.13l6.21-6.213-2.13-2.13ZM9.882 18.118v1.647H4.941v-1.647h4.941Zm3.294-3.294v1.647H4.941v-1.647h8.235Zm10.706-4.6L22.2 11.907l2.13 2.13 1.683-1.683-2.13-2.13Zm-7.411-5.283v6.589H4.941V4.941h11.53Zm-1.647 1.647H6.588v3.295h8.235V6.588Z"/></svg>