<svg xmlns="http://www.w3.org/2000/svg" width="28" height="28"><path fill-rule="evenodd" d="M20.362 1.647A2.793 2.793 0 0 0 17.733 0h-7.467a2.793 2.793 0 0 0-2.628 1.647H0V28h28V1.647Zm5.772 24.706H1.867V3.294h5.6v3.294h13.067V3.294h5.6v23.059ZM9.334 3.294v-.823a.884.884 0 0 1 .933-.824h7.467a.884.884 0 0 1 .933.824v2.47H9.334ZM5.6 14.824h5.6V9.882H5.6v4.941Zm1.867-1.647h1.867v-1.648H7.467Zm5.6-1.647H22.4V9.882h-9.333v1.647Zm0 8.235H22.4v-1.647h-9.333Zm0-4.941h5.6v-1.648h-5.6v1.647Zm0 8.235h5.6v-1.647h-5.6Zm-5.6-1.647h1.867v-1.647H7.467ZM5.6 23.059h5.6v-4.941H5.6Z"/></svg>