<svg xmlns="http://www.w3.org/2000/svg" width="28" height="28"><path fill-rule="evenodd" d="M7.778 8.556v1.556H3.111v7h.006l3.407 3.111h14.952l3.407-3.111h.006v-7h-4.667V8.556h5.133a1.089 1.089 0 0 1 1.089 1.089v7.467h.622a.933.933 0 0 1 .933.933v9.022a.933.933 0 0 1-.933.933H.933A.933.933 0 0 1 0 27.067v-9.023a.933.933 0 0 1 .933-.933h.622V9.644a1.089 1.089 0 0 1 1.089-1.088ZM2.514 18.667h-.958v7.778h24.888v-7.778h-.958l-3.407 3.111H5.921ZM14.778 0v15.233l3.339-3.339 1.1 1.1L14 18.211l-5.217-5.217 1.1-1.1 3.339 3.339V0h1.556Z"/></svg>