<svg xmlns="http://www.w3.org/2000/svg" width="28" height="28"><path fill-rule="evenodd" d="M26.25 19.25v6.125a.878.878 0 0 1-.875.875H19.25v-7Zm-8.75 0v7h-7v-7Zm-8.75 0v7H2.625a.878.878 0 0 1-.875-.875V19.25Zm17.5-8.75v7h-7v-7Zm-8.75 0v7h-7v-7Zm-8.75 0v7h-7v-7Zm16.625-8.75a.878.878 0 0 1 .875.875V8.75h-7v-7Zm-7.875 0v7h-7v-7Zm-8.75 0v7h-7V2.625a.878.878 0 0 1 .875-.875ZM25.375 0H2.625A2.628 2.628 0 0 0 0 2.625v22.75A2.628 2.628 0 0 0 2.625 28h22.75A2.628 2.628 0 0 0 28 25.375V2.625A2.628 2.628 0 0 0 25.375 0Z"/></svg>