<svg xmlns="http://www.w3.org/2000/svg" width="123.124" height="44.035">
    <g fill="#002664">
        <path d="M67.399 21.817c4.225 0 7.325-1.525 7.325-5.475 0-6.225-10.6-4.425-10.6-7.625 0-1.075 1.2-1.7 3.3-1.7 1.975 0 3.225.85 3.225 2.175v.2h3.625v-.3c0-3.5-3.1-5.025-6.875-5.025-3.975 0-7.075 1.5-7.075 4.9 0 6.4 10.6 4.375 10.6 7.925 0 1.225-1.2 1.925-3.575 1.925-2.3 0-3.7-.85-3.7-2.45a2.287 2.287 0 0 1 .025-.425h-3.7a2.722 2.722 0 0 0-.025.475c0 3.825 3.425 5.4 7.45 5.4Zm13.775-.3h3.75V7.492h5.525V4.367H75.674v3.125h5.5Zm7.2 0h3.85l1.225-3.375h7.475l1.225 3.375h4.025l-6.6-17.15h-4.6Zm6.15-6.375 1.525-4.225c.25-.75.75-2.3 1.05-3.3h.15c.3 1 .825 2.6 1.075 3.3l1.525 4.225Zm12.95 6.375h3.725v-6.25h4.775l3.025 6.25h4.125l-3.5-6.875a5.206 5.206 0 0 0 2.925-4.925c0-3.175-1.875-5.35-5.675-5.35h-9.4Zm3.725-9.2V7.392h5.175a2.159 2.159 0 0 1 2.375 2.375 2.283 2.283 0 0 1-2.375 2.55Z"/>
        <path d="M63.283 39.191c2.2 0 3.809-.793 3.809-2.847 0-3.237-5.512-2.3-5.512-3.965 0-.559.624-.884 1.716-.884 1.027 0 1.677.442 1.677 1.131v.1h1.885v-.156c0-1.82-1.612-2.613-3.575-2.613-2.067.004-3.679.784-3.679 2.552 0 3.326 5.512 2.275 5.512 4.126 0 .637-.624 1-1.859 1-1.2 0-1.924-.442-1.924-1.274a1.189 1.189 0 0 1 .013-.226h-1.922a1.416 1.416 0 0 0-.013.247c-.002 1.99 1.779 2.809 3.872 2.809Zm4.966-.156h7.2v-1.6h-5.25v-2.17h4.576v-1.573h-4.576v-1.989h5.174v-1.586h-7.124Zm8.489 0h1.937v-3.25h2.483l1.573 3.25h2.145l-1.82-3.575a2.707 2.707 0 0 0 1.521-2.561 2.619 2.619 0 0 0-2.953-2.782h-4.886Zm1.937-4.784V31.69h2.691a1.123 1.123 0 0 1 1.235 1.235 1.187 1.187 0 0 1-1.235 1.326Zm9.438 4.784h2.262l3.237-8.918h-2.015l-1.924 5.707c-.1.338-.26.806-.338 1.079h-.078c-.091-.3-.247-.806-.351-1.092l-1.924-5.694h-2.093Zm6.24 0h1.937v-8.918h-1.937Zm7.514.156c2.34 0 4.017-1.144 4.017-3.51h-1.872a1.865 1.865 0 0 1-2.132 1.924c-1.651 0-2.4-.962-2.4-2.834v-.4c0-1.833.754-2.821 2.418-2.821a1.851 1.851 0 0 1 2.036 1.934h1.95c0-2.366-1.716-3.523-4.017-3.523-2.795 0-4.394 1.5-4.394 4.615 0 3.185 1.599 4.615 4.394 4.615Zm5.148-.156h7.2v-1.6h-5.25v-2.17h4.576v-1.573h-4.576v-1.989h5.174v-1.586h-7.124Zm11.96.156c2.2 0 3.809-.793 3.809-2.847 0-3.237-5.512-2.3-5.512-3.965 0-.559.624-.884 1.716-.884 1.027 0 1.677.442 1.677 1.131v.1h1.885v-.156c0-1.82-1.612-2.613-3.575-2.613-2.067 0-3.679.78-3.679 2.548 0 3.328 5.512 2.275 5.512 4.121 0 .637-.624 1-1.859 1-1.2 0-1.924-.442-1.924-1.274a1.189 1.189 0 0 1 .013-.221h-1.924a1.416 1.416 0 0 0-.013.247c0 1.994 1.781 2.813 3.874 2.813Z"/>
        <path d="M13.455 30.99a3.741 3.741 0 0 1 1.564.7l20.407-16a3.789 3.789 0 0 1-.2-1.773l-21.775 17.07Zm3.115 3.178 3.067 7.5a3.83 3.83 0 0 0 7.169-.249l2.831-8.481a3.84 3.84 0 0 1 3.364-2.617l8.955-.658a3.8 3.8 0 0 0 2-6.861l-6.647-4.9-20.743 16.261Zm19.75-24.8.561-2.286L6.54 30.866l2.334.017L36.32 9.368Zm1.143-6.436a3.755 3.755 0 0 0-.633-1.351L1.03 29.646a3.7 3.7 0 0 0 1.233.88l35.2-27.594ZM34.116.015a3.715 3.715 0 0 0-2.589.713l-7.314 5.208a3.867 3.867 0 0 1-4.239.114l-7.609-4.735a3.826 3.826 0 0 0-5.652 4.4l2.707 8.551a3.792 3.792 0 0 1-1.185 4.055l-6.877 5.785a3.734 3.734 0 0 0-1.359 2.649L34.116.011Z"/>
    </g>
</svg>
