<svg xmlns="http://www.w3.org/2000/svg" width="25.202" height="25.202"><defs><clipPath id="a"><path fill="#fff" d="m25.202 23.937-7.77-7.77a9.964 9.964 0 0 0-1.265-13.913A9.963 9.963 0 0 0 2.253 3.519a9.964 9.964 0 0 0 1.265 13.913 9.832 9.832 0 0 0 12.649 0l7.77 7.77ZM1.712 9.843a8.1 8.1 0 0 1 8.131-8.131 8.1 8.1 0 0 1 8.131 8.131 8.1 8.1 0 0 1-8.131 8.131 8.1 8.1 0 0 1-8.132-8.127Z" clip-rule="evenodd" data-name="Path 3029"/></clipPath><clipPath id="b"><path fill="#fff" d="M0 57.822h1850.312V0H0Z" data-name="Path 3028"/></clipPath></defs><g clip-path="url(#a)" data-name="Group 2829"><g clip-path="url(#b)" data-name="Group 2828" transform="translate(-1387.829 -16.358)"><path fill="#fff" d="M1378.795 7.324h43.271v43.271h-43.271Z"/></g></g></svg>