<svg xmlns="http://www.w3.org/2000/svg" width="28" height="28"><path fill-rule="evenodd" d="M11.239 15.6 21.76 25.969a1.527 1.527 0 0 0 2.132 0l2.046-2.018a1.467 1.467 0 0 0 0-2.1L15.6 11.662l.17-.476a7.151 7.151 0 0 0-1.706-7.5 7.412 7.412 0 0 0-6.978-1.871l4.029 3.971a2.488 2.488 0 0 1 0 3.551l-1.638 1.614a2.58 2.58 0 0 1-3.6 0L1.845 6.984a7.166 7.166 0 0 0 1.9 6.878 7.4 7.4 0 0 0 7.043 1.855ZM22.825 28a3.14 3.14 0 0 1-2.21-.9l-9.872-9.73A9.033 9.033 0 0 1 2.6 14.991a8.746 8.746 0 0 1-1.832-9.8l.479-1.06 5.773 5.69a.942.942 0 0 0 1.312 0L9.97 8.207a.908.908 0 0 0 0-1.293L4.2 1.228 5.272.755a9.066 9.066 0 0 1 9.938 1.8 8.744 8.744 0 0 1 2.247 8.674l9.627 9.489a3.047 3.047 0 0 1 0 4.357L25.037 27.1a3.148 3.148 0 0 1-2.212.9Z"/></svg>